<?xml version="1.0" encoding="UTF-8"?> <svg xmlns="http://www.w3.org/2000/svg" xmlns:xlink="http://www.w3.org/1999/xlink" xmlns:xodm="http://www.corel.com/coreldraw/odm/2003" xml:space="preserve" width="658.321mm" height="17.469mm" version="1.1" style="shape-rendering:geometricPrecision; text-rendering:geometricPrecision; image-rendering:optimizeQuality; fill-rule:evenodd; clip-rule:evenodd" viewBox="0 0 52494.73 1392.98"> <defs> <style type="text/css"> .fil0 {fill:#D98899} </style> </defs> <g id="Слой_x0020_1"> <metadata id="CorelCorpID_0Corel-Layer"></metadata> <path class="fil0" d="M2916.35 433.9l0 3.09 0.06 0.13 0 -4.84c183.05,433.94 424.75,832.13 914.43,716.43 192.8,-45.63 339.41,-195.65 385.41,-391.24 31.71,-132.34 14.34,-302.04 -80.51,-408.49 -123.72,-135.19 -371.07,-169.7 -520.66,-57.48 -97.83,71.88 -158.22,181.19 -97.83,301.98 71.93,149.58 261.76,143.88 327.92,-11.49 23.03,-54.62 71.88,-83.36 129.48,-66.17 69.02,20.17 94.91,80.57 74.79,149.6 -74.79,253.12 -379.69,356.66 -598.36,215.7 -192.74,-126.5 -244.5,-396.95 -129.48,-592.53 -259.09,29.3 -405.26,-117.94 -405.26,-172.01 0,-15.02 11.17,-22.78 34.2,-17.81 178.4,37.37 532.2,-25.88 704.75,-74.79 309.93,-89.38 642.93,79.2 763.41,372.73 19.31,-32.21 36.57,-56.85 58.29,-83.35 178.33,-238.73 457.41,-330.78 753.67,-310.67 286.64,18.93 484.65,195.09 602.1,431.21l0 3.09 0.06 0.13 0 -4.84c183.05,433.94 424.69,832.13 914.37,716.43 192.79,-45.63 339.41,-195.65 385.46,-391.24 31.66,-132.34 14.34,-302.04 -80.57,-408.49 -123.71,-135.19 -371.06,-169.7 -520.59,-57.48 -97.83,71.88 -158.22,181.19 -97.83,301.98 71.94,149.58 261.76,143.88 327.93,-11.49 23.02,-54.62 71.87,-83.36 129.4,-66.17 69.1,20.17 94.91,80.57 74.8,149.6 -74.8,253.12 -379.68,356.66 -598.31,215.7 -192.72,-126.5 -244.5,-396.95 -129.48,-592.53 -259.15,29.3 -405.26,-117.94 -405.26,-172.01 0,-15.02 11.17,-22.78 34.2,-17.81 178.33,37.37 532.2,-25.88 704.75,-74.79 309.92,-89.38 642.87,79.2 763.35,372.73 19.31,-32.21 36.62,-56.85 58.28,-83.35 178.4,-238.73 457.4,-330.78 753.67,-310.67 286.71,18.93 484.65,195.09 602.1,431.21l0 3.09 0.06 0.13 0 -4.84c183.05,433.94 424.76,832.13 914.44,716.43 192.73,-45.63 339.41,-195.65 385.4,-391.24 31.66,-132.34 14.34,-302.04 -80.57,-408.49 -123.65,-135.19 -371,-169.7 -520.59,-57.48 -97.89,71.88 -158.21,181.19 -97.89,301.98 71.95,149.58 261.82,143.88 327.99,-11.49 23.04,-54.62 71.88,-83.36 129.41,-66.17 69.09,20.17 94.91,80.57 74.8,149.6 -74.8,253.12 -379.69,356.66 -598.31,215.7 -192.73,-126.5 -244.49,-396.95 -129.48,-592.53 -259.14,29.3 -405.26,-117.94 -405.26,-172.01 0,-15.02 11.17,-22.78 34.19,-17.81 178.34,37.37 532.2,-25.88 704.71,-74.79 309.97,-89.38 642.93,79.2 763.41,372.73 19.36,-32.21 36.62,-56.85 58.28,-83.35 178.39,-238.73 457.41,-330.78 753.67,-310.67 286.71,18.93 484.65,195.09 602.09,431.21l0 3.09 0.06 0.13 0 -4.84c183.05,433.94 424.75,832.13 914.43,716.43 192.8,-45.63 339.41,-195.65 385.41,-391.24 31.71,-132.34 14.34,-302.04 -80.51,-408.49 -123.72,-135.19 -371.07,-169.7 -520.66,-57.48 -97.83,71.88 -158.22,181.19 -97.83,301.98 71.93,149.58 261.76,143.88 327.92,-11.49 23.03,-54.62 71.88,-83.36 129.48,-66.17 69.02,20.17 94.91,80.57 74.79,149.6 -74.79,253.12 -379.69,356.66 -598.36,215.7 -192.74,-126.5 -244.5,-396.95 -129.48,-592.53 -259.09,29.3 -405.26,-117.94 -405.26,-172.01 0,-15.02 11.17,-22.78 34.2,-17.81 178.4,37.37 532.2,-25.88 704.75,-74.79 309.93,-89.38 642.93,79.2 763.41,372.73 19.31,-32.21 36.57,-56.85 58.29,-83.35 178.33,-238.73 457.41,-330.78 753.67,-310.67 286.64,18.93 484.65,195.09 602.1,431.21l0 3.09 0.06 0.13 0 -4.84c183.05,433.94 424.69,832.13 914.37,716.43 192.79,-45.63 339.41,-195.65 385.46,-391.24 31.66,-132.34 14.34,-302.04 -80.57,-408.49 -123.71,-135.19 -371.06,-169.7 -520.59,-57.48 -97.83,71.88 -158.22,181.19 -97.83,301.98 71.94,149.58 261.76,143.88 327.93,-11.49 23.02,-54.62 71.87,-83.36 129.4,-66.17 69.1,20.17 94.91,80.57 74.8,149.6 -74.8,253.12 -379.68,356.66 -598.31,215.7 -192.72,-126.5 -244.5,-396.95 -129.48,-592.53 -259.15,29.3 -405.26,-117.94 -405.26,-172.01 0,-15.02 11.17,-22.78 34.2,-17.81 178.33,37.37 532.2,-25.88 704.75,-74.79 309.92,-89.38 642.87,79.2 763.35,372.73 19.31,-32.21 36.62,-56.85 58.28,-83.35 178.4,-238.73 457.4,-330.78 753.67,-310.67 286.71,18.93 484.65,195.09 602.1,431.21l0 3.09 0.06 0.13 0 -4.84c183.05,433.94 424.76,832.13 914.44,716.43 192.73,-45.63 339.41,-195.65 385.4,-391.24 31.66,-132.34 14.34,-302.04 -80.57,-408.49 -123.65,-135.19 -371,-169.7 -520.59,-57.48 -97.89,71.88 -158.21,181.19 -97.89,301.98 71.95,149.58 261.82,143.88 327.99,-11.49 23.04,-54.62 71.88,-83.36 129.41,-66.17 69.09,20.17 94.91,80.57 74.8,149.6 -74.8,253.12 -379.69,356.66 -598.31,215.7 -192.73,-126.5 -244.49,-396.95 -129.48,-592.53 -259.14,29.3 -405.26,-117.94 -405.26,-172.01 0,-15.02 11.17,-22.78 34.19,-17.81 178.34,37.37 532.2,-25.88 704.71,-74.79 309.97,-89.38 642.93,79.2 763.41,372.73 19.36,-32.21 36.62,-56.85 58.28,-83.35 178.39,-238.73 457.41,-330.78 753.67,-310.67 286.71,18.93 484.65,195.09 602.09,431.21l0 3.09 0.06 0.13 0 -4.84c183.05,433.94 424.75,832.13 914.43,716.43 192.8,-45.63 339.41,-195.65 385.41,-391.24 31.71,-132.34 14.34,-302.04 -80.51,-408.49 -123.72,-135.19 -371.07,-169.7 -520.66,-57.48 -97.83,71.88 -158.22,181.19 -97.83,301.98 71.93,149.58 261.76,143.88 327.92,-11.49 23.03,-54.62 71.88,-83.36 129.48,-66.17 69.02,20.17 94.91,80.57 74.79,149.6 -74.79,253.12 -379.69,356.66 -598.36,215.7 -192.74,-126.5 -244.5,-396.95 -129.48,-592.53 -259.09,29.3 -405.26,-117.94 -405.26,-172.01 0,-15.02 11.17,-22.78 34.2,-17.81 178.4,37.37 532.2,-25.88 704.75,-74.79 309.93,-89.38 642.93,79.2 763.41,372.73 19.31,-32.21 36.57,-56.85 58.29,-83.35 178.33,-238.73 457.41,-330.78 753.67,-310.67 286.64,18.93 484.65,195.09 602.1,431.21l0 3.09 0.06 0.13 0 -4.84c183.05,433.94 424.69,832.13 914.37,716.43 192.79,-45.63 339.41,-195.65 385.46,-391.24 31.66,-132.34 14.34,-302.04 -80.57,-408.49 -123.71,-135.19 -371.06,-169.7 -520.59,-57.48 -97.83,71.88 -158.22,181.19 -97.83,301.98 71.94,149.58 261.76,143.88 327.93,-11.49 23.02,-54.62 71.87,-83.36 129.4,-66.17 69.1,20.17 94.91,80.57 74.8,149.6 -74.8,253.12 -379.68,356.66 -598.31,215.7 -192.72,-126.5 -244.5,-396.95 -129.48,-592.53 -259.15,29.3 -405.26,-117.94 -405.26,-172.01 0,-15.02 11.17,-22.78 34.2,-17.81 178.33,37.37 532.2,-25.88 704.75,-74.79 309.92,-89.38 642.87,79.2 763.35,372.73 19.31,-32.21 36.62,-56.85 58.28,-83.35 178.4,-238.73 457.4,-330.78 753.67,-310.67 286.71,18.93 484.65,195.09 602.1,431.21l0 648.39c-145,239.34 -441.76,366.97 -719.97,286.7 -172.68,-48.84 -526.49,-112.15 -704.75,-74.79 -106.45,23.09 40.22,-227.18 371.06,-189.82 -115.08,-195.58 -63.31,-466.02 129.43,-592.52 218.62,-140.97 523.5,-37.44 598.3,215.69 20.11,69.02 -5.71,129.48 -74.8,149.54 -57.53,17.38 -106.39,-11.43 -129.47,-66.1 -66.17,-155.31 -255.92,-161.02 -327.87,-11.49 -60.45,120.79 0,230.1 97.77,301.98 149.66,112.23 396.95,77.71 520.71,-57.48 94.91,-106.45 112.16,-276.15 80.44,-408.48 -45.99,-195.6 -192.54,-345.62 -385.34,-391.18 -446.79,-105.58 -687.19,216.63 -864.9,603.59 -107.31,290.3 -319.92,520.53 -650.01,542.38 -296.33,20.1 -575.33,-71.93 -753.67,-310.67 -21.78,-26.51 -39.03,-51.21 -58.35,-83.36 -12.6,31.41 -27.69,61.45 -44.93,89.81l0 -3.78c-145,239.34 -441.83,366.97 -720.04,286.7 -172.61,-48.84 -526.41,-112.15 -704.69,-74.79 -106.51,23.09 40.22,-227.18 371.07,-189.82 -115.15,-195.58 -63.38,-466.02 129.41,-592.52 218.55,-140.97 523.46,-37.44 598.31,215.69 20.11,69.02 -5.77,129.48 -74.85,149.54 -57.55,17.38 -106.33,-11.43 -129.43,-66.1 -66.16,-155.31 -255.98,-161.02 -327.86,-11.49 -60.45,120.79 0,230.1 97.76,301.98 149.59,112.23 396.94,77.71 520.66,-57.48 94.91,-106.45 112.15,-276.15 80.51,-408.48 -45.99,-195.6 -192.54,-345.62 -385.41,-391.18 -446.78,-105.58 -687.18,216.63 -864.9,603.59 -107.26,290.3 -319.85,520.53 -650,542.38 -296.27,20.1 -575.28,-71.93 -753.67,-310.67 -21.73,-26.51 -38.99,-51.21 -58.29,-83.36 -12.67,31.41 -27.74,61.45 -45,89.81l0 -3.78c-145,239.34 -441.76,366.97 -719.97,286.7 -172.69,-48.84 -526.49,-112.15 -704.75,-74.79 -106.46,23.09 40.23,-227.18 371.06,-189.82 -115.08,-195.58 -63.32,-466.02 129.42,-592.52 218.61,-140.97 523.51,-37.44 598.31,215.69 20.17,69.02 -5.72,129.48 -74.8,149.54 -57.55,17.38 -106.4,-11.43 -129.43,-66.1 -66.23,-155.31 -255.97,-161.02 -327.85,-11.49 -60.46,120.79 0,230.1 97.69,301.98 149.66,112.23 396.95,77.71 520.72,-57.48 94.91,-106.45 112.16,-276.15 80.51,-408.48 -46.05,-195.6 -192.55,-345.62 -385.46,-391.18 -446.73,-105.58 -687.13,216.63 -864.84,603.59 -107.32,290.3 -319.91,520.53 -650.08,542.38 -296.2,20.1 -575.27,-71.93 -753.6,-310.67 -21.79,-26.51 -39.04,-51.21 -58.35,-83.36 -12.6,31.41 -27.75,61.45 -44.93,89.81l0 -3.78c-145,239.34 -441.76,366.97 -719.97,286.7 -172.68,-48.84 -526.49,-112.15 -704.75,-74.79 -106.45,23.09 40.22,-227.18 371.06,-189.82 -115.08,-195.58 -63.31,-466.02 129.43,-592.52 218.62,-140.97 523.5,-37.44 598.3,215.69 20.11,69.02 -5.71,129.48 -74.8,149.54 -57.53,17.38 -106.39,-11.43 -129.47,-66.1 -66.17,-155.31 -255.92,-161.02 -327.87,-11.49 -60.45,120.79 0,230.1 97.77,301.98 149.66,112.23 396.95,77.71 520.71,-57.48 94.91,-106.45 112.16,-276.15 80.44,-408.48 -45.99,-195.6 -192.54,-345.62 -385.34,-391.18 -446.79,-105.58 -687.19,216.63 -864.9,603.59 -107.31,290.3 -319.92,520.53 -650.01,542.38 -296.33,20.1 -575.33,-71.93 -753.67,-310.67 -21.78,-26.51 -39.03,-51.21 -58.35,-83.36 -12.6,31.41 -27.69,61.45 -44.93,89.81l0 -3.78c-145,239.34 -441.83,366.97 -720.04,286.7 -172.61,-48.84 -526.41,-112.15 -704.69,-74.79 -106.51,23.09 40.22,-227.18 371.07,-189.82 -115.15,-195.58 -63.38,-466.02 129.41,-592.52 218.55,-140.97 523.46,-37.44 598.31,215.69 20.11,69.02 -5.77,129.48 -74.85,149.54 -57.55,17.38 -106.33,-11.43 -129.43,-66.1 -66.16,-155.31 -255.98,-161.02 -327.86,-11.49 -60.45,120.79 0,230.1 97.76,301.98 149.59,112.23 396.94,77.71 520.66,-57.48 94.91,-106.45 112.15,-276.15 80.51,-408.48 -45.99,-195.6 -192.54,-345.62 -385.41,-391.18 -446.78,-105.58 -687.18,216.63 -864.9,603.59 -107.26,290.3 -319.85,520.53 -650,542.38 -296.27,20.1 -575.28,-71.93 -753.67,-310.67 -21.73,-26.51 -38.99,-51.21 -58.29,-83.36 -12.67,31.41 -27.74,61.45 -45,89.81l0 -3.78c-145,239.34 -441.76,366.97 -719.97,286.7 -172.69,-48.84 -526.49,-112.15 -704.75,-74.79 -106.46,23.09 40.23,-227.18 371.06,-189.82 -115.08,-195.58 -63.32,-466.02 129.42,-592.52 218.61,-140.97 523.51,-37.44 598.31,215.69 20.17,69.02 -5.72,129.48 -74.8,149.54 -57.55,17.38 -106.4,-11.43 -129.43,-66.1 -66.23,-155.31 -255.97,-161.02 -327.85,-11.49 -60.46,120.79 0,230.1 97.69,301.98 149.66,112.23 396.95,77.71 520.72,-57.48 94.91,-106.45 112.16,-276.15 80.51,-408.48 -46.05,-195.6 -192.55,-345.62 -385.46,-391.18 -446.73,-105.58 -687.13,216.63 -864.84,603.59 -107.32,290.3 -319.91,520.53 -650.08,542.38 -296.2,20.1 -575.27,-71.93 -753.6,-310.67 -21.79,-26.51 -39.04,-51.21 -58.35,-83.36 -12.6,31.41 -27.75,61.45 -44.93,89.81l0 -3.78c-145,239.34 -441.76,366.97 -719.97,286.7 -172.68,-48.84 -526.49,-112.15 -704.75,-74.79 -106.45,23.09 40.22,-227.18 371.06,-189.82 -115.08,-195.58 -63.31,-466.02 129.43,-592.52 218.62,-140.97 523.5,-37.44 598.3,215.69 20.11,69.02 -5.71,129.48 -74.8,149.54 -57.53,17.38 -106.39,-11.43 -129.47,-66.1 -66.17,-155.31 -255.92,-161.02 -327.87,-11.49 -60.45,120.79 0,230.1 97.77,301.98 149.66,112.23 396.95,77.71 520.71,-57.48 94.91,-106.45 112.16,-276.15 80.44,-408.48 -45.99,-195.6 -192.54,-345.62 -385.34,-391.18 -446.79,-105.58 -687.19,216.63 -864.9,603.59 -107.31,290.3 -319.92,520.53 -650.01,542.38 -296.33,20.1 -575.33,-71.93 -753.67,-310.67 -21.78,-26.51 -39.03,-51.21 -58.35,-83.36 -12.6,31.41 -27.69,61.45 -44.93,89.81l0 -3.78c-145,239.34 -441.83,366.97 -720.04,286.7 -172.61,-48.84 -526.41,-112.15 -704.69,-74.79 -106.51,23.09 40.22,-227.18 371.07,-189.82 -115.15,-195.58 -63.38,-466.02 129.41,-592.52 218.55,-140.97 523.46,-37.44 598.31,215.69 20.11,69.02 -5.77,129.48 -74.85,149.54 -57.55,17.38 -106.33,-11.43 -129.43,-66.1 -66.16,-155.31 -255.98,-161.02 -327.86,-11.49 -60.45,120.79 0,230.1 97.76,301.98 149.59,112.23 396.94,77.71 520.66,-57.48 94.91,-106.45 112.15,-276.15 80.51,-408.48 -45.99,-195.6 -192.54,-345.62 -385.41,-391.18 -446.78,-105.58 -687.18,216.63 -864.9,603.59 -107.26,290.3 -319.85,520.53 -650,542.38 -296.27,20.1 -575.28,-71.93 -753.67,-310.67 -21.73,-26.51 -38.99,-51.21 -58.29,-83.36 -12.67,31.41 -27.74,61.45 -45,89.81l0 -3.78c-145,239.34 -441.76,366.97 -719.97,286.7 -172.69,-48.84 -526.49,-112.15 -704.75,-74.79 -106.46,23.09 40.23,-227.18 371.06,-189.82 -115.08,-195.58 -63.32,-466.02 129.42,-592.52 218.61,-140.97 523.51,-37.44 598.31,215.69 20.17,69.02 -5.72,129.48 -74.8,149.54 -57.55,17.38 -106.4,-11.43 -129.43,-66.1 -66.23,-155.31 -255.97,-161.02 -327.85,-11.49 -60.46,120.79 0,230.1 97.69,301.98 149.66,112.23 396.95,77.71 520.72,-57.48 94.91,-106.45 112.16,-276.15 80.51,-408.48 -46.05,-195.6 -192.55,-345.62 -385.46,-391.18 -446.73,-105.58 -687.13,216.63 -864.84,603.59 -107.32,290.3 -319.91,520.53 -650.08,542.38 -296.2,20.1 -575.27,-71.93 -753.6,-310.67 -21.79,-26.51 -39.04,-51.21 -58.35,-83.36 -12.6,31.41 -27.75,61.45 -44.93,89.81l0 -649.08 0.06 0.13 0 -4.84c183.05,433.94 424.76,832.13 914.44,716.43 192.73,-45.63 339.41,-195.65 385.4,-391.24 31.66,-132.34 14.34,-302.04 -80.57,-408.49 -123.65,-135.19 -371,-169.7 -520.59,-57.48 -97.89,71.88 -158.21,181.19 -97.89,301.98 71.95,149.58 261.82,143.88 327.99,-11.49 23.04,-54.62 71.88,-83.36 129.41,-66.17 69.09,20.17 94.91,80.57 74.8,149.6 -74.8,253.12 -379.69,356.66 -598.31,215.7 -192.73,-126.5 -244.49,-396.95 -129.48,-592.53 -259.14,29.3 -405.26,-117.94 -405.26,-172.01 0,-15.02 11.17,-22.78 34.19,-17.81 178.34,37.37 532.2,-25.88 704.71,-74.79 309.97,-89.38 642.93,79.2 763.41,372.73 19.36,-32.21 36.62,-56.85 58.28,-83.35 178.39,-238.73 457.41,-330.78 753.67,-310.67 286.71,18.93 484.65,195.09 602.09,431.21z"></path> <path class="fil0" d="M29163.72 433.9l0 3.09 0.06 0.13 0 -4.84c183.05,433.94 424.75,832.13 914.43,716.43 192.8,-45.63 339.41,-195.65 385.41,-391.24 31.71,-132.34 14.34,-302.04 -80.51,-408.49 -123.72,-135.19 -371.07,-169.7 -520.66,-57.48 -97.83,71.88 -158.22,181.19 -97.83,301.98 71.93,149.58 261.76,143.88 327.92,-11.49 23.03,-54.62 71.88,-83.36 129.48,-66.17 69.02,20.17 94.91,80.57 74.79,149.6 -74.79,253.12 -379.69,356.66 -598.36,215.7 -192.74,-126.5 -244.5,-396.95 -129.48,-592.53 -259.09,29.3 -405.26,-117.94 -405.26,-172.01 0,-15.02 11.17,-22.78 34.2,-17.81 178.4,37.37 532.2,-25.88 704.75,-74.79 309.93,-89.38 642.93,79.2 763.41,372.73 19.31,-32.21 36.57,-56.85 58.29,-83.35 178.33,-238.73 457.41,-330.78 753.67,-310.67 286.64,18.93 484.65,195.09 602.1,431.21l0 3.09 0.06 0.13 0 -4.84c183.05,433.94 424.69,832.13 914.37,716.43 192.79,-45.63 339.41,-195.65 385.46,-391.24 31.66,-132.34 14.34,-302.04 -80.57,-408.49 -123.71,-135.19 -371.06,-169.7 -520.59,-57.48 -97.83,71.88 -158.22,181.19 -97.83,301.98 71.94,149.58 261.76,143.88 327.93,-11.49 23.02,-54.62 71.87,-83.36 129.4,-66.17 69.1,20.17 94.91,80.57 74.8,149.6 -74.8,253.12 -379.68,356.66 -598.31,215.7 -192.72,-126.5 -244.5,-396.95 -129.48,-592.53 -259.15,29.3 -405.26,-117.94 -405.26,-172.01 0,-15.02 11.17,-22.78 34.2,-17.81 178.33,37.37 532.2,-25.88 704.75,-74.79 309.92,-89.38 642.87,79.2 763.35,372.73 19.31,-32.21 36.62,-56.85 58.28,-83.35 178.4,-238.73 457.4,-330.78 753.67,-310.67 286.71,18.93 484.65,195.09 602.1,431.21l0 3.09 0.06 0.13 0 -4.84c183.05,433.94 424.76,832.13 914.44,716.43 192.73,-45.63 339.41,-195.65 385.4,-391.24 31.66,-132.34 14.34,-302.04 -80.57,-408.49 -123.65,-135.19 -371,-169.7 -520.59,-57.48 -97.89,71.88 -158.21,181.19 -97.89,301.98 71.95,149.58 261.82,143.88 327.99,-11.49 23.04,-54.62 71.88,-83.36 129.41,-66.17 69.09,20.17 94.91,80.57 74.8,149.6 -74.8,253.12 -379.69,356.66 -598.31,215.7 -192.73,-126.5 -244.49,-396.95 -129.48,-592.53 -259.14,29.3 -405.26,-117.94 -405.26,-172.01 0,-15.02 11.17,-22.78 34.19,-17.81 178.34,37.37 532.2,-25.88 704.71,-74.79 309.97,-89.38 642.93,79.2 763.41,372.73 19.36,-32.21 36.62,-56.85 58.28,-83.35 178.39,-238.73 457.41,-330.78 753.67,-310.67 286.71,18.93 484.65,195.09 602.09,431.21l0 3.09 0.06 0.13 0 -4.84c183.05,433.94 424.75,832.13 914.43,716.43 192.8,-45.63 339.41,-195.65 385.41,-391.24 31.71,-132.34 14.34,-302.04 -80.51,-408.49 -123.72,-135.19 -371.07,-169.7 -520.66,-57.48 -97.83,71.88 -158.22,181.19 -97.83,301.98 71.93,149.58 261.76,143.88 327.92,-11.49 23.03,-54.62 71.88,-83.36 129.48,-66.17 69.02,20.17 94.91,80.57 74.79,149.6 -74.79,253.12 -379.69,356.66 -598.36,215.7 -192.74,-126.5 -244.5,-396.95 -129.48,-592.53 -259.09,29.3 -405.26,-117.94 -405.26,-172.01 0,-15.02 11.17,-22.78 34.2,-17.81 178.4,37.37 532.2,-25.88 704.75,-74.79 309.93,-89.38 642.93,79.2 763.41,372.73 19.31,-32.21 36.57,-56.85 58.29,-83.35 178.33,-238.73 457.41,-330.78 753.67,-310.67 286.64,18.93 484.65,195.09 602.1,431.21l0 3.09 0.06 0.13 0 -4.84c183.05,433.94 424.69,832.13 914.37,716.43 192.79,-45.63 339.41,-195.65 385.46,-391.24 31.66,-132.34 14.34,-302.04 -80.57,-408.49 -123.71,-135.19 -371.06,-169.7 -520.59,-57.48 -97.83,71.88 -158.22,181.19 -97.83,301.98 71.94,149.58 261.76,143.88 327.93,-11.49 23.02,-54.62 71.87,-83.36 129.4,-66.17 69.1,20.17 94.91,80.57 74.8,149.6 -74.8,253.12 -379.68,356.66 -598.31,215.7 -192.72,-126.5 -244.5,-396.95 -129.48,-592.53 -259.15,29.3 -405.26,-117.94 -405.26,-172.01 0,-15.02 11.17,-22.78 34.2,-17.81 178.33,37.37 532.2,-25.88 704.75,-74.79 309.92,-89.38 642.87,79.2 763.35,372.73 19.31,-32.21 36.62,-56.85 58.28,-83.35 178.4,-238.73 457.4,-330.78 753.67,-310.67 286.71,18.93 484.65,195.09 602.1,431.21l0 3.09 0.06 0.13 0 -4.84c183.05,433.94 424.76,832.13 914.44,716.43 192.73,-45.63 339.41,-195.65 385.4,-391.24 31.66,-132.34 14.34,-302.04 -80.57,-408.49 -123.65,-135.19 -371,-169.7 -520.59,-57.48 -97.89,71.88 -158.21,181.19 -97.89,301.98 71.95,149.58 261.82,143.88 327.99,-11.49 23.04,-54.62 71.88,-83.36 129.41,-66.17 69.09,20.17 94.91,80.57 74.8,149.6 -74.8,253.12 -379.69,356.66 -598.31,215.7 -192.73,-126.5 -244.49,-396.95 -129.48,-592.53 -259.14,29.3 -405.26,-117.94 -405.26,-172.01 0,-15.02 11.17,-22.78 34.19,-17.81 178.34,37.37 532.2,-25.88 704.71,-74.79 309.97,-89.38 642.93,79.2 763.41,372.73 19.36,-32.21 36.62,-56.85 58.28,-83.35 178.39,-238.73 457.41,-330.78 753.67,-310.67 286.71,18.93 484.65,195.09 602.09,431.21l0 3.09 0.06 0.13 0 -4.84c183.05,433.94 424.75,832.13 914.43,716.43 192.8,-45.63 339.41,-195.65 385.41,-391.24 31.71,-132.34 14.34,-302.04 -80.51,-408.49 -123.72,-135.19 -371.07,-169.7 -520.66,-57.48 -97.83,71.88 -158.22,181.19 -97.83,301.98 71.93,149.58 261.76,143.88 327.92,-11.49 23.03,-54.62 71.88,-83.36 129.48,-66.17 69.02,20.17 94.91,80.57 74.79,149.6 -74.79,253.12 -379.69,356.66 -598.36,215.7 -192.74,-126.5 -244.5,-396.95 -129.48,-592.53 -259.09,29.3 -405.26,-117.94 -405.26,-172.01 0,-15.02 11.17,-22.78 34.2,-17.81 178.4,37.37 532.2,-25.88 704.75,-74.79 309.93,-89.38 642.93,79.2 763.41,372.73 19.31,-32.21 36.57,-56.85 58.29,-83.35 178.33,-238.73 457.41,-330.78 753.67,-310.67 286.64,18.93 484.65,195.09 602.1,431.21l0 3.09 0.06 0.13 0 -4.84c183.05,433.94 424.69,832.13 914.37,716.43 192.79,-45.63 339.41,-195.65 385.46,-391.24 31.66,-132.34 14.34,-302.04 -80.57,-408.49 -123.71,-135.19 -371.06,-169.7 -520.59,-57.48 -97.83,71.88 -158.22,181.19 -97.83,301.98 71.94,149.58 261.76,143.88 327.93,-11.49 23.02,-54.62 71.87,-83.36 129.4,-66.17 69.1,20.17 94.91,80.57 74.8,149.6 -74.8,253.12 -379.68,356.66 -598.31,215.7 -192.72,-126.5 -244.5,-396.95 -129.48,-592.53 -259.15,29.3 -405.26,-117.94 -405.26,-172.01 0,-15.02 11.17,-22.78 34.2,-17.81 178.33,37.37 532.2,-25.88 704.75,-74.79 309.92,-89.38 642.87,79.2 763.35,372.73 19.31,-32.21 36.62,-56.85 58.28,-83.35 178.4,-238.73 457.4,-330.78 753.67,-310.67 286.71,18.93 484.65,195.09 602.1,431.21l0 648.39c-145,239.34 -441.76,366.97 -719.97,286.7 -172.68,-48.84 -526.49,-112.15 -704.75,-74.79 -106.45,23.09 40.22,-227.18 371.06,-189.82 -115.08,-195.58 -63.31,-466.02 129.43,-592.52 218.62,-140.97 523.5,-37.44 598.3,215.69 20.11,69.02 -5.71,129.48 -74.8,149.54 -57.53,17.38 -106.39,-11.43 -129.47,-66.1 -66.17,-155.31 -255.92,-161.02 -327.87,-11.49 -60.45,120.79 0,230.1 97.77,301.98 149.66,112.23 396.95,77.71 520.71,-57.48 94.91,-106.45 112.16,-276.15 80.44,-408.48 -45.99,-195.6 -192.54,-345.62 -385.34,-391.18 -446.79,-105.58 -687.19,216.63 -864.9,603.59 -107.31,290.3 -319.92,520.53 -650.01,542.38 -296.33,20.1 -575.33,-71.93 -753.67,-310.67 -21.78,-26.51 -39.03,-51.21 -58.35,-83.36 -12.6,31.41 -27.69,61.45 -44.93,89.81l0 -3.78c-145,239.34 -441.83,366.97 -720.04,286.7 -172.61,-48.84 -526.41,-112.15 -704.69,-74.79 -106.51,23.09 40.22,-227.18 371.07,-189.82 -115.15,-195.58 -63.38,-466.02 129.41,-592.52 218.55,-140.97 523.46,-37.44 598.31,215.69 20.11,69.02 -5.77,129.48 -74.85,149.54 -57.55,17.38 -106.33,-11.43 -129.43,-66.1 -66.16,-155.31 -255.98,-161.02 -327.86,-11.49 -60.45,120.79 0,230.1 97.76,301.98 149.59,112.23 396.94,77.71 520.66,-57.48 94.91,-106.45 112.15,-276.15 80.51,-408.48 -45.99,-195.6 -192.54,-345.62 -385.41,-391.18 -446.78,-105.58 -687.18,216.63 -864.9,603.59 -107.26,290.3 -319.85,520.53 -650,542.38 -296.27,20.1 -575.28,-71.93 -753.67,-310.67 -21.73,-26.51 -38.99,-51.21 -58.29,-83.36 -12.67,31.41 -27.74,61.45 -45,89.81l0 -3.78c-145,239.34 -441.76,366.97 -719.97,286.7 -172.69,-48.84 -526.49,-112.15 -704.75,-74.79 -106.46,23.09 40.23,-227.18 371.06,-189.82 -115.08,-195.58 -63.32,-466.02 129.42,-592.52 218.61,-140.97 523.51,-37.44 598.31,215.69 20.17,69.02 -5.72,129.48 -74.8,149.54 -57.55,17.38 -106.4,-11.43 -129.43,-66.1 -66.23,-155.31 -255.97,-161.02 -327.85,-11.49 -60.46,120.79 0,230.1 97.69,301.98 149.66,112.23 396.95,77.71 520.72,-57.48 94.91,-106.45 112.16,-276.15 80.51,-408.48 -46.05,-195.6 -192.55,-345.62 -385.46,-391.18 -446.73,-105.58 -687.13,216.63 -864.84,603.59 -107.32,290.3 -319.91,520.53 -650.08,542.38 -296.2,20.1 -575.27,-71.93 -753.6,-310.67 -21.79,-26.51 -39.04,-51.21 -58.35,-83.36 -12.6,31.41 -27.75,61.45 -44.93,89.81l0 -3.78c-145,239.34 -441.76,366.97 -719.97,286.7 -172.68,-48.84 -526.49,-112.15 -704.75,-74.79 -106.45,23.09 40.22,-227.18 371.06,-189.82 -115.08,-195.58 -63.31,-466.02 129.43,-592.52 218.62,-140.97 523.5,-37.44 598.3,215.69 20.11,69.02 -5.71,129.48 -74.8,149.54 -57.53,17.38 -106.39,-11.43 -129.47,-66.1 -66.17,-155.31 -255.92,-161.02 -327.87,-11.49 -60.45,120.79 0,230.1 97.77,301.98 149.66,112.23 396.95,77.71 520.71,-57.48 94.91,-106.45 112.16,-276.15 80.44,-408.48 -45.99,-195.6 -192.54,-345.62 -385.34,-391.18 -446.79,-105.58 -687.19,216.63 -864.9,603.59 -107.31,290.3 -319.92,520.53 -650.01,542.38 -296.33,20.1 -575.33,-71.93 -753.67,-310.67 -21.78,-26.51 -39.03,-51.21 -58.35,-83.36 -12.6,31.41 -27.69,61.45 -44.93,89.81l0 -3.78c-145,239.34 -441.83,366.97 -720.04,286.7 -172.61,-48.84 -526.41,-112.15 -704.69,-74.79 -106.51,23.09 40.22,-227.18 371.07,-189.82 -115.15,-195.58 -63.38,-466.02 129.41,-592.52 218.55,-140.97 523.46,-37.44 598.31,215.69 20.11,69.02 -5.77,129.48 -74.85,149.54 -57.55,17.38 -106.33,-11.43 -129.43,-66.1 -66.16,-155.31 -255.98,-161.02 -327.86,-11.49 -60.45,120.79 0,230.1 97.76,301.98 149.59,112.23 396.94,77.71 520.66,-57.48 94.91,-106.45 112.15,-276.15 80.51,-408.48 -45.99,-195.6 -192.54,-345.62 -385.41,-391.18 -446.78,-105.58 -687.18,216.63 -864.9,603.59 -107.26,290.3 -319.85,520.53 -650,542.38 -296.27,20.1 -575.28,-71.93 -753.67,-310.67 -21.73,-26.51 -38.99,-51.21 -58.29,-83.36 -12.67,31.41 -27.74,61.45 -45,89.81l0 -3.78c-145,239.34 -441.76,366.97 -719.97,286.7 -172.69,-48.84 -526.49,-112.15 -704.75,-74.79 -106.46,23.09 40.23,-227.18 371.06,-189.82 -115.08,-195.58 -63.32,-466.02 129.42,-592.52 218.61,-140.97 523.51,-37.44 598.31,215.69 20.17,69.02 -5.72,129.48 -74.8,149.54 -57.55,17.38 -106.4,-11.43 -129.43,-66.1 -66.23,-155.31 -255.97,-161.02 -327.85,-11.49 -60.46,120.79 0,230.1 97.69,301.98 149.66,112.23 396.95,77.71 520.72,-57.48 94.91,-106.45 112.16,-276.15 80.51,-408.48 -46.05,-195.6 -192.55,-345.62 -385.46,-391.18 -446.73,-105.58 -687.13,216.63 -864.84,603.59 -107.32,290.3 -319.91,520.53 -650.08,542.38 -296.2,20.1 -575.27,-71.93 -753.6,-310.67 -21.79,-26.51 -39.04,-51.21 -58.35,-83.36 -12.6,31.41 -27.75,61.45 -44.93,89.81l0 -3.78c-145,239.34 -441.76,366.97 -719.97,286.7 -172.68,-48.84 -526.49,-112.15 -704.75,-74.79 -106.45,23.09 40.22,-227.18 371.06,-189.82 -115.08,-195.58 -63.31,-466.02 129.43,-592.52 218.62,-140.97 523.5,-37.44 598.3,215.69 20.11,69.02 -5.71,129.48 -74.8,149.54 -57.53,17.38 -106.39,-11.43 -129.47,-66.1 -66.17,-155.31 -255.92,-161.02 -327.87,-11.49 -60.45,120.79 0,230.1 97.77,301.98 149.66,112.23 396.95,77.71 520.71,-57.48 94.91,-106.45 112.16,-276.15 80.44,-408.48 -45.99,-195.6 -192.54,-345.62 -385.34,-391.18 -446.79,-105.58 -687.19,216.63 -864.9,603.59 -107.31,290.3 -319.92,520.53 -650.01,542.38 -296.33,20.1 -575.33,-71.93 -753.67,-310.67 -21.78,-26.51 -39.03,-51.21 -58.35,-83.36 -12.6,31.41 -27.69,61.45 -44.93,89.81l0 -3.78c-145,239.34 -441.83,366.97 -720.04,286.7 -172.61,-48.84 -526.41,-112.15 -704.69,-74.79 -106.51,23.09 40.22,-227.18 371.07,-189.82 -115.15,-195.58 -63.38,-466.02 129.41,-592.52 218.55,-140.97 523.46,-37.44 598.31,215.69 20.11,69.02 -5.77,129.48 -74.85,149.54 -57.55,17.38 -106.33,-11.43 -129.43,-66.1 -66.16,-155.31 -255.98,-161.02 -327.86,-11.49 -60.45,120.79 0,230.1 97.76,301.98 149.59,112.23 396.94,77.71 520.66,-57.48 94.91,-106.45 112.15,-276.15 80.51,-408.48 -45.99,-195.6 -192.54,-345.62 -385.41,-391.18 -446.78,-105.58 -687.18,216.63 -864.9,603.59 -107.26,290.3 -319.85,520.53 -650,542.38 -296.27,20.1 -575.28,-71.93 -753.67,-310.67 -21.73,-26.51 -38.99,-51.21 -58.29,-83.36 -12.67,31.41 -27.74,61.45 -45,89.81l0 -3.78c-145,239.34 -441.76,366.97 -719.97,286.7 -172.69,-48.84 -526.49,-112.15 -704.75,-74.79 -106.46,23.09 40.23,-227.18 371.06,-189.82 -115.08,-195.58 -63.32,-466.02 129.42,-592.52 218.61,-140.97 523.51,-37.44 598.31,215.69 20.17,69.02 -5.72,129.48 -74.8,149.54 -57.55,17.38 -106.4,-11.43 -129.43,-66.1 -66.23,-155.31 -255.97,-161.02 -327.85,-11.49 -60.46,120.79 0,230.1 97.69,301.98 149.66,112.23 396.95,77.71 520.72,-57.48 94.91,-106.45 112.16,-276.15 80.51,-408.48 -46.05,-195.6 -192.55,-345.62 -385.46,-391.18 -446.73,-105.58 -687.13,216.63 -864.84,603.59 -107.32,290.3 -319.91,520.53 -650.08,542.38 -296.2,20.1 -575.27,-71.93 -753.6,-310.67 -21.79,-26.51 -39.04,-51.21 -58.35,-83.36 -12.6,31.41 -27.75,61.45 -44.93,89.81l0 -649.08 0.06 0.13 0 -4.84c183.05,433.94 424.76,832.13 914.44,716.43 192.73,-45.63 339.41,-195.65 385.4,-391.24 31.66,-132.34 14.34,-302.04 -80.57,-408.49 -123.65,-135.19 -371,-169.7 -520.59,-57.48 -97.89,71.88 -158.21,181.19 -97.89,301.98 71.95,149.58 261.82,143.88 327.99,-11.49 23.04,-54.62 71.88,-83.36 129.41,-66.17 69.09,20.17 94.91,80.57 74.8,149.6 -74.8,253.12 -379.69,356.66 -598.31,215.7 -192.73,-126.5 -244.49,-396.95 -129.48,-592.53 -259.14,29.3 -405.26,-117.94 -405.26,-172.01 0,-15.02 11.17,-22.78 34.19,-17.81 178.34,37.37 532.2,-25.88 704.71,-74.79 309.97,-89.38 642.93,79.2 763.41,372.73 19.36,-32.21 36.62,-56.85 58.28,-83.35 178.39,-238.73 457.41,-330.78 753.67,-310.67 286.71,18.93 484.65,195.09 602.09,431.21z"></path> </g> </svg> 