<?xml version="1.0" encoding="UTF-8"?> <svg xmlns="http://www.w3.org/2000/svg" xmlns:xlink="http://www.w3.org/1999/xlink" xmlns:xodm="http://www.corel.com/coreldraw/odm/2003" xml:space="preserve" width="47.8964mm" height="47.8964mm" version="1.1" style="shape-rendering:geometricPrecision; text-rendering:geometricPrecision; image-rendering:optimizeQuality; fill-rule:evenodd; clip-rule:evenodd" viewBox="0 0 427.73 427.73"> <defs> <style type="text/css"> .fil1 {fill:white} .fil0 {fill:white;fill-rule:nonzero} </style> </defs> <g id="Слой_x0020_1"> <metadata id="CorelCorpID_0Corel-Layer"></metadata> <g id="_2528067264784"> <path class="fil0" d="M213.87 0c59.05,0 112.52,23.94 151.23,62.64 38.7,38.7 62.64,92.17 62.64,151.23 0,59.05 -23.94,112.52 -62.64,151.23 -38.7,38.7 -92.17,62.64 -151.23,62.64 -59.06,0 -112.52,-23.94 -151.23,-62.64 -38.7,-38.7 -62.64,-92.17 -62.64,-151.23 0,-59.06 23.94,-112.52 62.64,-151.23 38.7,-38.7 92.17,-62.64 151.23,-62.64zm142.32 71.55c-36.42,-36.42 -86.74,-58.95 -142.32,-58.95 -55.58,0 -105.9,22.53 -142.32,58.95 -36.42,36.42 -58.95,86.74 -58.95,142.32 0,55.58 22.53,105.9 58.95,142.32 36.42,36.42 86.74,58.95 142.32,58.95 55.58,0 105.9,-22.53 142.32,-58.95 36.42,-36.42 58.95,-86.74 58.95,-142.32 0,-55.58 -22.53,-105.9 -58.95,-142.32z"></path> <g> <rect class="fil1" x="127.56" y="109.74" width="53.46" height="208.25" rx="23.39" ry="23.39"></rect> <rect class="fil1" x="246.72" y="109.74" width="53.46" height="208.25" rx="23.39" ry="23.39"></rect> </g> </g> </g> </svg> 