<?xml version="1.0" encoding="UTF-8"?> <svg xmlns="http://www.w3.org/2000/svg" xmlns:xlink="http://www.w3.org/1999/xlink" xmlns:xodm="http://www.corel.com/coreldraw/odm/2003" xml:space="preserve" width="47.8964mm" height="47.8964mm" version="1.1" style="shape-rendering:geometricPrecision; text-rendering:geometricPrecision; image-rendering:optimizeQuality; fill-rule:evenodd; clip-rule:evenodd" viewBox="0 0 339.47 339.47"> <defs> <style type="text/css"> .fil1 {fill:white} .fil0 {fill:white;fill-rule:nonzero} </style> </defs> <g id="Слой_x0020_1"> <metadata id="CorelCorpID_0Corel-Layer"></metadata> <g id="_2529081239712"> <path class="fil0" d="M169.73 0c46.87,0 89.3,19 120.02,49.71 30.72,30.72 49.71,73.15 49.71,120.02 0,46.87 -19,89.3 -49.71,120.02 -30.72,30.72 -73.15,49.71 -120.02,49.71 -46.87,0 -89.3,-19 -120.02,-49.71 -30.72,-30.72 -49.71,-73.15 -49.71,-120.02 0,-46.87 19,-89.3 49.71,-120.02 30.72,-30.72 73.15,-49.71 120.02,-49.71zm112.95 56.79c-28.91,-28.91 -68.84,-46.78 -112.95,-46.78 -44.11,0 -84.04,17.88 -112.95,46.78 -28.91,28.91 -46.78,68.84 -46.78,112.95 0,44.11 17.88,84.04 46.78,112.95 28.91,28.91 68.84,46.78 112.95,46.78 44.11,0 84.04,-17.88 112.95,-46.78 28.91,-28.91 46.78,-68.84 46.78,-112.95 0,-44.11 -17.88,-84.04 -46.78,-112.95z"></path> <path class="fil1" d="M106.97 206.24c-12.78,-0.58 -20.56,1.73 -28.64,8.13 -6.26,4.96 -12.44,13.49 -11.73,25.05 1.24,20.26 27.67,29.77 46.52,19.35 21.6,-11.95 18.44,-26.54 18.44,-54.84 -0,-24.11 -0.65,-49.2 0.05,-73.18l81.45 -22.79 0.07 81.86c-11.04,0.58 -17.73,-0.49 -28.59,7.99 -6.61,5.16 -12.93,14 -12.03,25.27 2.32,29.1 52.77,33.63 63.84,-1.62 2.23,-7.09 1.29,-27.27 1.29,-36.12l-0.12 -92.35c-0.09,-6.79 -1.07,-10.03 -5.06,-13.67 -8.01,-7.3 -19.61,-1.71 -28.9,0.67 -24.16,6.19 -48.99,14.05 -72.77,20.2 -7.94,2.05 -14.71,2.88 -19.55,7.97 -6.11,6.43 -4.22,9.86 -4.22,23.69 -0,24.72 0.36,49.71 -0.04,74.39z"></path> </g> </g> </svg> 